<?xml version="1.0" encoding="UTF-8"?>
<svg id="Capa_1" data-name="Capa 1" xmlns="http://www.w3.org/2000/svg" viewBox="0 0 700 100">
  <path d="m105.92,49.71c-.43-.15-.96-.34-1.58-.55-.27-.1-.26-.49.02-.56,1.64-.46,4.12-1.45,6.24-3.65,5.21-5.43,3.37-13.13,3.21-13.8-1.58-6.23-7.27-11.03-14.38-12.15-20.97-.03-41.93-.07-62.89-.1.03,20.47.07,40.96.1,61.43,19.63.1,39.27.2,58.9.29,5.19-9.49,10.37-18.98,15.55-28.48-.46-.33-1.19-.8-2.13-1.26-.46-.22-.97-.44-3.02-1.16Zm-12.54,15.94h-38c.03-10.6.06-21.19.09-31.79h36.07c3.43.78,3.68,2.47,3.78,4.86.09,1.93-.16,4.09-2.92,4.93-2.75.07-5.41-.03-8.16.03.07,4.18.13,8.36.2,12.54,2.92-.06,5.83-.13,8.75-.19,3.27.06,4.13,2.23,4.27,4.57.14,2.36-1.32,5.06-4.08,5.06Z" fill="#ac0505"/>
  <path d="m102.99,80.82c11.41-20.83,22.81-41.67,34.22-62.5,8.2-.03,16.39-.06,24.59-.1,11.05,20.87,22.1,41.73,33.15,62.6h-21.29c-7.97-15.07-15.94-30.13-23.91-45.2-.42-.02-.73.02-1.05-.04-8.2,15.1-16.31,30.05-24.51,45.14-7.06.03-14.13.06-21.19.1Z" fill="#fff"/>
  <path d="m186.19,52.14c.06-11.21.13-22.42.19-33.63h56.28c2.53.17,7.16.86,11.66,3.99,2.05,1.42,5.54,3.84,6.8,8.07.39,1.3.49,2.72.68,5.54.13,1.86.07,2.49.1,6.8.03,5.8.13,5.62,0,6.71-.23,1.88-.57,4.5-2.24,7.29-1.59,2.68-3.6,4.16-4.57,4.86-1.43,1.03-5.69,4.12-10.06,3.47-.3-.04-.55-.1-.63.03-.62.91,9.35,8.81,18.57,15.84-7.42-.03-14.84-.06-22.26-.1-5.83-5.09-11.66-10.17-17.5-15.26-.03-5.35-.06-10.69-.1-16.04h13.32c.47-.08,3.66-.67,5.41-3.66,1.88-3.2.56-6.48.29-7.1-1.26-2.93-4.23-4.91-7.65-5.18h-28.87c.05,6.11.11,12.23.16,18.34-6.53.01-13.07.02-19.6.03Z" fill="#fff"/>
  <path d="m269.3,18.12c-.04,5.23-.33,42.07,0,45.39.06.65.16,1.28.16,1.28.19,1.31.52,2.9,1.11,4.65.71,2.12,1.3,3.88,2.82,5.73,2.06,2.51,4.52,3.6,5.64,4.08.72.31,2.49,1.01,4.96,1.26,4.55.47,23.89.7,50.16.49,1.39-.23,3.53-.75,5.83-2.04,3.21-1.8,5-4.12,5.54-4.86,1.82-2.49,2.47-4.84,2.92-6.51.63-2.35.74-4.25.78-5.05.21-4.5.29-21.44.1-44.52h-19.83v40.83c-.18.9-.59,2.32-1.65,3.69,0,0-1.34,1.73-3.79,2.82-3.24,1.43-14.1,1.82-28.67.39-1.01-.1-2.9-.52-4.47-2.04-1.44-1.39-1.94-3.14-2.14-4.18.03-13.77.06-27.54.1-41.31-6.51-.03-13.03-.06-19.54-.1Z" fill="#fff"/>
  <path d="m357.66,18.12v63.08h20.02c-.03-5.9-.06-11.79-.1-17.69,2.27-1.1,4.54-2.2,6.8-3.3,8.29,7.19,16.59,14.39,24.88,21.58,9.75.03,19.51.06,29.26.1-11.79-10.37-23.59-20.74-35.38-31.1-.03-.23-.06-.45-.1-.68,8.55-4.44,17.11-8.88,25.66-13.32-.03-6.46-.06-12.93-.1-19.39-17.01,9.14-34.02,18.27-51.03,27.41.03-8.93.06-17.85.1-26.78-6.67.03-13.35.06-20.02.1Z" fill="#fff"/>
  <path d="m564.88,37.22c-.91-1.35-2.15-2.4-3.71-3.14-1.56-.75-3.25-1.11-5.07-1.11s-3.59.37-5.12,1.11c-1.54.73-2.76,1.79-3.67,3.14-.91,1.36-1.36,2.99-1.36,4.9s.45,3.47,1.36,4.83c.91,1.35,2.14,2.4,3.67,3.14,1.54.75,3.25,1.11,5.12,1.11s3.57-.37,5.11-1.11c1.54-.73,2.76-1.79,3.67-3.14.91-1.36,1.37-2.96,1.37-4.83s-.46-3.54-1.37-4.9Zm0,0c-.91-1.35-2.15-2.4-3.71-3.14-1.56-.75-3.25-1.11-5.07-1.11s-3.59.37-5.12,1.11c-1.54.73-2.76,1.79-3.67,3.14-.91,1.36-1.36,2.99-1.36,4.9s.45,3.47,1.36,4.83c.91,1.35,2.14,2.4,3.67,3.14,1.54.75,3.25,1.11,5.12,1.11s3.57-.37,5.11-1.11c1.54-.73,2.76-1.79,3.67-3.14.91-1.36,1.37-2.96,1.37-4.83s-.46-3.54-1.37-4.9Zm-119.59-18.32v63.71h218.19V18.9h-218.19Zm81.17,49.22c-1.77,2.57-4.25,4.57-7.42,6-3.19,1.43-6.94,2.14-11.26,2.14s-8.26-.67-11.34-2.03c-3.07-1.36-5.4-3.14-7-5.33-1.59-2.18-2.44-4.52-2.54-6.99-.05-.43.09-.77.43-1.04.34-.26.75-.39,1.21-.39h7.27c.58,0,1.06.11,1.45.32.39.22.69.59.9,1.11.51,1.42,1.26,2.6,2.22,3.5.96.89,2.09,1.57,3.36,2,1.27.43,2.61.64,4.02.64,1.87,0,3.59-.34,5.12-1.03,1.54-.7,2.77-1.73,3.71-3.11.94-1.38,1.41-3.07,1.41-5.07,0-1.76-.45-3.28-1.34-4.57-.89-1.29-2.1-2.3-3.64-3.04-1.54-.75-3.29-1.11-5.27-1.11-1.46,0-2.66.17-3.6.5s-1.72.71-2.37,1.14c-.66.43-1.23.82-1.72,1.15-.5.33-1.05.5-1.67.5h-7.2c-.46,0-.87-.16-1.21-.47-.34-.32-.5-.69-.5-1.11l2.72-24.43c.05-.61.29-1.09.71-1.42.41-.34.91-.5,1.49-.5h29.38c.52,0,.96.16,1.34.5.36.33.55.73.55,1.21v4.79c0,.48-.19.88-.55,1.21-.38.33-.81.5-1.34.5h-22.59l-1.25,11.63c.94-.56,2.19-1.11,3.75-1.64,1.56-.51,3.72-.78,6.49-.78,2.5,0,4.89.37,7.15,1.1,2.27.75,4.29,1.81,6.06,3.22,1.77,1.41,3.16,3.1,4.19,5.07,1.01,1.98,1.52,4.23,1.52,6.75,0,3.48-.89,6.5-2.66,9.07Zm49.79-20.57c-.72,1.76-1.62,3.37-2.69,4.83-1.08,1.46-2.12,2.87-3.17,4.25l-13.76,17.43c-.2.24-.5.54-.9.89-.39.36-.97.54-1.75.54h-7.27c-.46,0-.86-.16-1.17-.47s-.46-.67-.46-1.1c0-.24.04-.43.11-.58s.14-.26.2-.36l11.49-14.5c-.99.23-2.06.33-3.2.28-2.66-.05-5.12-.51-7.39-1.4-2.27-.88-4.25-2.07-5.95-3.56-1.69-1.51-3.02-3.25-3.99-5.22-.96-1.97-1.44-4.13-1.44-6.47,0-2.14.44-4.25,1.32-6.32.89-2.07,2.2-3.94,3.95-5.61,1.74-1.67,3.94-2.99,6.56-3.97,2.64-.98,5.72-1.46,9.26-1.46s6.57.45,9.22,1.35c2.66.91,4.89,2.16,6.69,3.76,1.8,1.59,3.15,3.42,4.07,5.46.9,2.05,1.36,4.21,1.36,6.5,0,2.05-.36,3.94-1.1,5.71Zm46.48,21.47c-1.85,2.31-4.39,4.09-7.62,5.33-3.24,1.24-6.94,1.85-11.1,1.85-3.65,0-6.8-.4-9.46-1.21-2.66-.81-4.86-1.86-6.61-3.17-1.74-1.31-3.06-2.74-3.94-4.29-.89-1.56-1.36-3.09-1.41-4.62,0-.43.17-.77.51-1.03s.74-.39,1.21-.39h7.04c.51,0,.96.1,1.32.28.36.2.67.58.94,1.14.46,1.29,1.24,2.31,2.3,3.07,1.08.76,2.31,1.3,3.72,1.6,1.4.32,2.89.47,4.45.47,3.12,0,5.61-.67,7.46-2.03s2.77-3.29,2.77-5.82-.85-4.35-2.57-5.47c-1.72-1.11-4.11-1.68-7.19-1.68h-8.06c-.57,0-1.04-.15-1.4-.47-.36-.31-.55-.72-.55-1.25v-3c0-.47.11-.88.35-1.25.24-.36.49-.65.75-.89l13.99-12.49h-22.36c-.57,0-1.02-.17-1.36-.5-.34-.33-.51-.73-.51-1.21v-4.72c0-.53.17-.96.51-1.29.34-.34.79-.5,1.36-.5h33.55c.58,0,1.04.16,1.4.5.36.33.55.76.55,1.29v4.29c0,.43-.1.81-.31,1.14-.21.33-.44.62-.7.86l-13.52,12.71.94.07c3.17.24,6,.89,8.47,1.96,2.47,1.08,4.41,2.63,5.79,4.69,1.39,2.05,2.07,4.62,2.07,7.72s-.92,6.01-2.77,8.32Zm-61.57-34.93c-1.56-.75-3.25-1.11-5.07-1.11s-3.59.37-5.12,1.11c-1.54.73-2.76,1.79-3.67,3.14-.91,1.36-1.36,2.99-1.36,4.9s.45,3.47,1.36,4.83c.91,1.35,2.14,2.4,3.67,3.14,1.54.75,3.25,1.11,5.12,1.11s3.57-.37,5.11-1.11c1.54-.73,2.76-1.79,3.67-3.14.91-1.36,1.37-2.96,1.37-4.83s-.46-3.54-1.37-4.9c-.91-1.35-2.15-2.4-3.71-3.14Z" fill="#ac0505"/>
</svg>