<?xml version="1.0" encoding="UTF-8"?>
<svg id="Capa_1" data-name="Capa 1" xmlns="http://www.w3.org/2000/svg" viewBox="0 0 500 100">
  <path d="m89.71,50.09c-.53-.19-1.18-.42-1.94-.67-.33-.12-.32-.6.02-.69,2.02-.56,5.05-1.77,7.64-4.48,6.38-6.65,4.13-16.09,3.93-16.91-1.94-7.63-8.91-13.51-17.63-14.89-25.7-.04-51.39-.08-77.08-.12.04,25.09.08,50.2.12,75.29,24.06.12,48.12.24,72.19.35,6.36-11.63,12.71-23.26,19.06-34.9-.57-.4-1.46-.98-2.61-1.55-.57-.27-1.19-.54-3.7-1.43Zm-15.37,19.54H27.76c.04-12.99.07-25.97.11-38.96h44.21c4.21.95,4.51,3.03,4.64,5.95.11,2.36-.2,5.01-3.57,6.04-3.37.08-6.63-.04-10,.04.08,5.12.16,10.25.24,15.37,3.57-.07,7.15-.16,10.72-.23,4,.07,5.07,2.73,5.24,5.6.17,2.89-1.62,6.2-5,6.2Z" fill="#fff" stroke="#fff" stroke-miterlimit="10" stroke-width=".93"/>
  <path d="m86.11,88.21c13.98-25.53,27.96-51.07,41.93-76.6,10.05-.04,20.09-.08,30.14-.12,13.54,25.57,27.08,51.15,40.62,76.72h-26.09c-9.77-18.47-19.54-36.93-29.31-55.4-.52-.03-.9.03-1.29-.05-10.05,18.5-19.99,36.82-30.04,55.33-8.66.04-17.31.08-25.97.12Z" fill="#fff" stroke="#fff" stroke-miterlimit="10" stroke-width=".93"/>
  <path d="m188.09,53.07c.08-13.74.16-27.48.24-41.22h68.98c3.1.2,8.77,1.05,14.3,4.88,2.51,1.74,6.78,4.71,8.34,9.89.48,1.6.6,3.33.83,6.79.16,2.28.09,3.06.12,8.34.04,7.11.16,6.88,0,8.22-.28,2.3-.7,5.52-2.74,8.93-1.95,3.28-4.41,5.1-5.6,5.96-1.75,1.27-6.97,5.05-12.33,4.26-.36-.05-.67-.12-.78.03-.76,1.12,11.46,10.8,22.75,19.42-9.09-.04-18.19-.08-27.28-.12-7.15-6.23-14.3-12.47-21.44-18.7-.04-6.55-.08-13.1-.12-19.66h16.32c.58-.1,4.48-.83,6.63-4.49,2.3-3.92.68-7.94.36-8.7-1.55-3.6-5.18-6.02-9.37-6.35h-35.38c.07,7.49.13,14.98.2,22.48-8.01.01-16.02.03-24.02.04Z" fill="#fff" stroke="#fff" stroke-miterlimit="10" stroke-width=".93"/>
  <path d="m289.95,11.37c-.05,6.41-.4,51.56,0,55.63.08.8.19,1.57.19,1.57.23,1.6.64,3.55,1.36,5.7.87,2.6,1.59,4.76,3.45,7.03,2.52,3.08,5.54,4.42,6.91,5,.88.38,3.06,1.24,6.08,1.55,5.58.58,29.28.86,61.47.6,1.71-.28,4.32-.92,7.15-2.5,3.94-2.21,6.13-5.05,6.79-5.96,2.23-3.05,3.02-5.93,3.57-7.98.77-2.89.91-5.21.95-6.19.26-5.52.35-26.28.12-54.56h-24.3v50.03c-.22,1.1-.73,2.85-2.03,4.53,0,0-1.64,2.13-4.65,3.45-3.97,1.76-17.29,2.23-35.14.48-1.23-.12-3.56-.64-5.48-2.5-1.76-1.71-2.38-3.85-2.62-5.12.04-16.88.08-33.75.12-50.63-7.98-.04-15.96-.08-23.95-.12Z" fill="#fff" stroke="#fff" stroke-miterlimit="10" stroke-width=".93"/>
  <path d="m398.23,11.37v77.32h24.54c-.04-7.23-.08-14.45-.12-21.68,2.78-1.35,5.56-2.7,8.34-4.05,10.17,8.82,20.33,17.63,30.5,26.45,11.95.04,23.91.08,35.86.12-14.45-12.71-28.91-25.41-43.36-38.12-.04-.28-.08-.56-.12-.83,10.48-5.44,20.97-10.88,31.45-16.32-.04-7.92-.08-15.84-.12-23.77-20.85,11.2-41.7,22.4-62.54,33.59.04-10.94.08-21.88.12-32.82-8.18.04-16.36.08-24.54.12Z" fill="#fff" stroke="#fff" stroke-miterlimit="10" stroke-width=".93"/>
</svg>