<?xml version="1.0" encoding="UTF-8"?>
<svg id="uuid-39fe3727-4bb8-4ac5-b845-15b033389c38" data-name="Capa 1" xmlns="http://www.w3.org/2000/svg" viewBox="0 0 512 512">
  <path d="m49.89,440.28V72.06c1.96-.1,3.72-.27,5.48-.27,106.58,0,213.15-.21,319.73.15,29.89.1,53.93,12.51,69.72,38.69,6.08,10.09,7.57,21.4,7.59,33.01.03,14.13.29,28.25.49,42.38.39,28.55-16.88,51.6-44.77,59.7-1.68.49-3.34,1-5.03,2.66,1.13.34,2.26.7,3.4,1.01,23.38,6.36,42.31,18.45,51.47,41.94,2.53,6.47,3.65,13.82,3.87,20.81.54,17.27.12,34.57.2,51.86.15,30.03-14.68,50.91-40.1,64.98-14.16,7.84-29.7,11.24-45.88,11.25-106.91.05-213.82.04-320.72.04-1.63,0-3.27,0-5.44,0Zm90.82-142.93c.24,20.61.27,41.22,0,61.83-.07,4.95,1.58,6,6.22,5.99,64.5-.13,129-.06,193.5-.11,3.46,0,6.94-.43,10.37-.97,24.83-3.96,38.26-31.95,25.33-53.45-7.59-12.62-19.35-18.69-34.11-18.72-21.61-.05-43.22-.12-64.83.02-4.06.03-5.46-1.18-5.42-5.36.19-19.11.08-38.23.08-57.34v-6.82c2.08,0,3.7,0,5.33,0,16.62,0,33.25.06,49.87,0,20.39-.08,37.06-16.54,38.11-35.84.93-17.25-13.65-39.39-37.64-39.45-60.67-.16-121.35-.04-182.03-.15-3.83,0-4.76,1.32-4.73,4.92.14,21.77.18,43.55-.01,65.32" fill="#f60" stroke="#f60" stroke-miterlimit="10" stroke-width="1.17"/>
</svg>